<svg height="512" viewBox="0 0 64 64" width="512" xmlns="http://www.w3.org/2000/svg"><g id="coin-dollar-money-business-currency"><path d="m14 29a3 3 0 1 0 3 3 3 3 0 0 0 -3-3zm0 4a1 1 0 1 1 1-1 1 1 0 0 1 -1 1z"/><path d="m50 29a3 3 0 1 0 3 3 3 3 0 0 0 -3-3zm0 4a1 1 0 1 1 1-1 1 1 0 0 1 -1 1z"/><path d="m32 2a30 30 0 1 0 30 30 30.034 30.034 0 0 0 -30-30zm0 58a28 28 0 1 1 28-28 28.032 28.032 0 0 1 -28 28z"/><path d="m32 6a26 26 0 1 0 26 26 26.03 26.03 0 0 0 -26-26zm0 50a24 24 0 1 1 24-24 24.028 24.028 0 0 1 -24 24z"/><path d="m29 22h8a2 2 0 0 1 2 2h2a4 4 0 0 0 -4-4h-4v-4h-2v4h-2a6.006 6.006 0 0 0 -6 6v1a6.006 6.006 0 0 0 6 6h6a4 4 0 0 1 4 4v1a4 4 0 0 1 -4 4h-8a2 2 0 0 1 -2-2h-2a4 4 0 0 0 4 4h4v4h2v-4h2a6.006 6.006 0 0 0 6-6v-1a6.006 6.006 0 0 0 -6-6h-6a4 4 0 0 1 -4-4v-1a4 4 0 0 1 4-4z"/></g></svg>